<svg width="376" height="94" viewBox="0 0 376 94" fill="purple" xmlns="http://www.w3.org/2000/svg">
<path d="M56.361 9.066C63.357 9.066 68.736 10.584 72.498 13.62C76.326 16.656 78.24 20.682 78.24 25.698C78.24 27.678 77.943 29.757 77.349 31.935C75.501 38.535 71.838 43.419 66.36 46.587C60.948 49.755 54.084 51.339 45.768 51.339H35.571L32.205 63.318C32.073 63.714 32.007 64.242 32.007 64.902C32.007 65.826 32.205 66.585 32.601 67.179C33.063 67.773 33.723 68.466 34.581 69.258C35.307 69.918 35.802 70.413 36.066 70.743C36.33 71.073 36.462 71.469 36.462 71.931C36.462 73.053 35.934 73.845 34.878 74.307C33.822 74.769 32.271 75 30.225 75H5.376C3.66 75 2.373 74.703 1.515 74.109C0.657 73.449 0.36 72.558 0.624 71.436C0.756 70.842 1.02 70.38 1.416 70.05C1.746 69.654 2.274 69.225 3 68.763C4.122 68.103 5.013 67.41 5.673 66.684C6.333 65.958 6.861 64.836 7.257 63.318L19.335 20.649C19.599 19.791 19.731 18.966 19.731 18.174C19.731 17.448 19.599 16.854 19.335 16.392C19.137 15.864 18.84 15.27 18.444 14.61C17.85 13.752 17.553 13.059 17.553 12.531C17.553 12.333 17.619 11.97 17.751 11.442C18.015 10.584 18.576 9.99 19.434 9.66C20.358 9.264 21.744 9.066 23.592 9.066H56.361ZM53.787 30.153C54.513 27.711 54.876 25.566 54.876 23.718C54.876 19.89 53.094 17.976 49.53 17.976H45.075L38.046 42.429H42.402C45.174 42.429 47.418 41.571 49.134 39.855C50.916 38.073 52.467 34.839 53.787 30.153ZM105.922 22.629C113.512 22.629 119.584 24.048 124.138 26.886C128.692 29.658 130.969 33.915 130.969 39.657C130.969 41.835 130.573 44.31 129.781 47.082L125.722 60.744C125.656 61.008 125.623 61.338 125.623 61.734C125.623 62.79 126.052 63.318 126.91 63.318C127.702 63.318 128.362 62.988 128.89 62.328C129.484 61.602 129.88 61.239 130.078 61.239C130.408 61.239 130.672 61.47 130.87 61.932C131.134 62.394 131.266 62.922 131.266 63.516C131.332 65.298 130.639 67.113 129.187 68.961C127.801 70.809 125.92 72.327 123.544 73.515C121.168 74.703 118.561 75.297 115.723 75.297C112.291 75.297 109.354 74.67 106.912 73.416C104.47 72.162 102.787 70.314 101.863 67.872C99.8831 70.248 97.5401 72.096 94.8341 73.416C92.1281 74.67 89.2241 75.297 86.1221 75.297C82.6241 75.297 79.6871 74.637 77.3111 73.317C74.9351 71.931 73.1531 70.182 71.9651 68.07C70.8431 65.892 70.2821 63.615 70.2821 61.239C70.2821 60.183 70.3811 59.16 70.5791 58.17C71.6351 53.616 73.9121 50.184 77.4101 47.874C80.9741 45.564 85.1981 44.409 90.0821 44.409C95.5601 44.409 100.939 45.267 106.219 46.983L108.694 40.449C109.552 37.677 109.981 35.532 109.981 34.014C109.915 32.43 109.387 31.242 108.397 30.45C107.407 29.658 105.889 29.262 103.843 29.262C104.239 30.318 104.437 31.407 104.437 32.529C104.437 34.971 103.513 37.083 101.665 38.865C99.8171 40.647 97.1771 41.538 93.7451 41.538C90.5111 41.538 87.9701 40.845 86.1221 39.459C84.3401 38.007 83.4491 36.225 83.4491 34.113C83.4491 30.813 85.2971 28.074 88.9931 25.896C92.6891 23.718 98.3321 22.629 105.922 22.629ZM100.378 52.626C98.5301 52.626 97.0121 53.352 95.8241 54.804C94.7021 56.19 94.1411 57.708 94.1411 59.358C94.1411 60.414 94.3721 61.272 94.8341 61.932C95.3621 62.592 96.0881 62.922 97.0121 62.922C97.8701 62.922 98.7941 62.592 99.7841 61.932C100.84 61.206 101.599 60.15 102.061 58.764L104.14 52.923C103.018 52.725 101.764 52.626 100.378 52.626ZM161.391 22.629C165.219 22.629 168.024 23.355 169.806 24.807C171.588 26.259 172.479 28.239 172.479 30.747C172.479 32.265 172.248 33.717 171.786 35.103L162.678 64.704C162.48 65.496 162.381 66.189 162.381 66.783C162.381 67.641 162.546 68.334 162.876 68.862C163.206 69.324 163.668 69.786 164.262 70.248C164.724 70.71 165.054 71.106 165.252 71.436C165.45 71.7 165.483 72.063 165.351 72.525C165.021 73.383 164.361 74.01 163.371 74.406C162.381 74.802 160.863 75 158.817 75H136.245C134.529 75 133.275 74.736 132.483 74.208C131.691 73.614 131.427 72.855 131.691 71.931C131.955 71.139 132.648 70.446 133.77 69.852C134.76 69.324 135.585 68.697 136.245 67.971C136.905 67.245 137.466 66.09 137.928 64.506L146.541 35.895C146.739 35.301 146.838 34.806 146.838 34.41C146.838 33.684 146.673 33.123 146.343 32.727C146.013 32.265 145.518 31.803 144.858 31.341C144.198 30.813 143.736 30.351 143.472 29.955C143.208 29.559 143.175 29.031 143.373 28.371C143.769 26.853 145.848 25.533 149.61 24.411C153.372 23.223 157.299 22.629 161.391 22.629ZM168.024 0.749994C170.598 0.749994 172.743 1.60799 174.459 3.324C176.175 4.97399 177.033 7.01999 177.033 9.46199C177.033 11.178 176.571 12.861 175.647 14.511C174.789 16.161 173.535 17.514 171.885 18.57C170.301 19.56 168.519 20.055 166.539 20.055C164.031 20.055 161.919 19.23 160.203 17.58C158.553 15.864 157.695 13.752 157.629 11.244C157.629 9.594 158.058 7.977 158.916 6.393C159.774 4.743 160.995 3.39 162.579 2.334C164.163 1.278 165.978 0.749994 168.024 0.749994ZM220.218 22.629C223.914 22.629 226.851 23.751 229.029 25.995C231.273 28.239 232.395 31.011 232.395 34.311C232.395 35.565 232.263 36.72 231.999 37.776C231.339 40.482 230.085 42.561 228.237 44.013C226.389 45.465 224.178 46.191 221.604 46.191C219.096 46.191 217.182 45.597 215.862 44.409C214.608 43.221 213.486 41.637 212.496 39.657C211.968 38.535 211.473 37.71 211.011 37.182C210.549 36.654 210.021 36.39 209.427 36.39C208.767 36.39 208.173 36.654 207.645 37.182C207.183 37.71 206.754 38.634 206.358 39.954L198.735 64.704C198.603 65.034 198.537 65.529 198.537 66.189C198.537 67.047 198.768 67.773 199.23 68.367C199.758 68.895 200.451 69.423 201.309 69.951C202.101 70.479 202.629 70.908 202.893 71.238C203.157 71.568 203.256 71.997 203.19 72.525C203.058 73.383 202.563 74.01 201.705 74.406C200.913 74.802 199.527 75 197.547 75H172.203C170.487 75 169.266 74.736 168.54 74.208C167.748 73.614 167.451 72.855 167.649 71.931C167.913 71.139 168.606 70.446 169.728 69.852C170.718 69.324 171.543 68.697 172.203 67.971C172.863 67.245 173.424 66.09 173.886 64.506L182.697 35.895C182.829 35.565 182.895 35.103 182.895 34.509C182.895 33.783 182.73 33.222 182.4 32.826C182.136 32.43 181.674 31.935 181.014 31.341C180.354 30.813 179.892 30.351 179.628 29.955C179.364 29.559 179.331 29.031 179.529 28.371C179.925 26.853 182.004 25.533 185.766 24.411C189.528 23.223 193.455 22.629 197.547 22.629C200.253 22.629 202.497 23.256 204.279 24.51C206.061 25.698 207.216 27.414 207.744 29.658C210.912 24.972 215.07 22.629 220.218 22.629ZM289.429 22.431C290.683 17.877 292.432 14.445 294.676 12.135C296.986 9.825 300.154 8.67 304.18 8.67C307.348 8.67 309.889 9.693 311.803 11.739C313.717 13.719 314.674 16.194 314.674 19.164C314.674 20.154 314.509 21.309 314.179 22.629C313.453 25.533 312.166 27.645 310.318 28.965C308.47 30.219 306.457 30.846 304.279 30.846C303.157 30.846 302.134 30.78 301.21 30.648C300.352 30.45 299.527 30.219 298.735 29.955L292.894 51.438C290.782 59.292 287.251 65.298 282.301 69.456C277.351 73.548 270.619 75.594 262.105 75.594C254.317 75.594 248.245 74.109 243.889 71.139C239.599 68.169 237.454 63.549 237.454 57.279C237.454 54.243 237.982 50.91 239.038 47.28L246.562 20.649C246.826 19.791 246.958 18.966 246.958 18.174C246.958 17.382 246.826 16.755 246.562 16.293C246.364 15.765 246.067 15.171 245.671 14.511C245.077 13.653 244.78 12.96 244.78 12.432C244.78 12.168 244.846 11.838 244.978 11.442C245.242 10.584 245.836 9.99 246.76 9.66C247.684 9.264 249.037 9.066 250.819 9.066H274.084C276.922 9.066 278.341 9.924 278.341 11.64C278.341 12.036 278.308 12.366 278.242 12.63C278.044 13.224 277.747 13.719 277.351 14.115C277.021 14.445 276.493 14.841 275.767 15.303C274.711 15.897 273.853 16.557 273.193 17.283C272.533 18.009 271.972 19.131 271.51 20.649L262.897 50.943C262.303 53.187 262.006 55.101 262.006 56.685C262.006 61.107 264.382 63.318 269.134 63.318C272.038 63.318 274.447 62.394 276.361 60.546C278.341 58.632 279.991 55.398 281.311 50.844L289.429 22.431ZM358.738 22.233C363.82 22.233 367.813 23.916 370.717 27.282C373.621 30.648 375.073 35.235 375.073 41.043C375.073 44.145 374.644 47.412 373.786 50.844C371.806 59.028 368.11 65.265 362.698 69.555C357.286 73.779 351.016 75.891 343.888 75.891C339.334 75.891 335.374 74.934 332.008 73.02L328.84 83.613C328.576 84.339 328.444 85.032 328.444 85.692C328.444 86.418 328.609 87.012 328.939 87.474C329.269 88.002 329.698 88.497 330.226 88.959C330.754 89.487 331.084 89.916 331.216 90.246C331.414 90.576 331.447 90.972 331.315 91.434C331.051 92.292 330.424 92.886 329.434 93.216C328.444 93.612 326.926 93.81 324.88 93.81H302.209C300.493 93.81 299.272 93.513 298.546 92.919C297.754 92.391 297.523 91.698 297.853 90.84C297.985 90.312 298.216 89.883 298.546 89.553C298.876 89.223 299.338 88.926 299.932 88.662C300.922 88.002 301.714 87.309 302.308 86.583C302.902 85.923 303.43 84.834 303.892 83.316L318.346 35.895C318.544 35.301 318.643 34.806 318.643 34.41C318.643 33.684 318.478 33.123 318.148 32.727C317.818 32.265 317.323 31.803 316.663 31.341C316.003 30.813 315.541 30.351 315.277 29.955C315.013 29.559 314.98 29.031 315.178 28.371C315.574 26.853 317.653 25.533 321.415 24.411C325.177 23.223 329.104 22.629 333.196 22.629C336.1 22.629 338.476 23.355 340.324 24.807C342.238 26.259 343.327 28.272 343.591 30.846C348.079 25.104 353.128 22.233 358.738 22.233ZM347.254 51.636C348.838 45.762 349.63 41.703 349.63 39.459C349.63 38.073 349.399 37.182 348.937 36.786C348.541 36.324 347.947 36.093 347.155 36.093C346.561 36.093 345.802 36.39 344.878 36.984C343.954 37.512 343.03 38.436 342.106 39.756L334.285 65.694C335.077 66.486 336.034 66.882 337.156 66.882C338.938 66.882 340.621 65.892 342.205 63.912C343.855 61.866 345.538 57.774 347.254 51.636Z" fill="salmon"/>
</svg>
